<svg xmlns="http://www.w3.org/2000/svg" viewBox="0 0 309.38 309.48"><defs><style>.cls-1{fill:#fff;}.cls-2{fill:#231f20;}.cls-3{fill:none;stroke:#231f20;stroke-miterlimit:10;}</style></defs><title>Equal Distances</title><g id="Paper_with_folds" data-name="Paper with folds"><rect class="cls-1" x="26.51" y="1.5" width="281.46" height="281.46"/><path class="cls-2" d="M315.48,5V284.44H36V5H315.48m2-2H34V286.44H317.48V3Z" transform="translate(-8.5 -2.47)"/><line class="cls-3" x1="36.82" y1="142.23" x2="297.65" y2="142.23"/><line class="cls-3" x1="96.38" y1="272.62" x2="96.38" y2="11.83"/><line class="cls-3" x1="167.24" y1="272.62" x2="167.24" y2="11.83"/><line class="cls-3" x1="238.11" y1="272.62" x2="238.11" y2="11.83"/></g><g id="Left_Side" data-name="Left Side"><line class="cls-3" x1="19.84" y1="142.23" y2="142.23"/><line class="cls-3" x1="19.84" y1="0.5" y2="0.5"/><line class="cls-3" x1="19.84" y1="283.95" y2="283.95"/><line class="cls-3" x1="9.92" y1="278.3" x2="9.92" y2="147.9"/><line class="cls-3" x1="9.92" y1="136.56" x2="9.92" y2="6.17"/><line class="cls-3" x1="2.83" y1="215.93" x2="17.01" y2="215.93"/><line class="cls-3" x1="2.83" y1="210.26" x2="17.01" y2="210.26"/><line class="cls-3" x1="2.83" y1="74.21" x2="17.01" y2="74.21"/><line class="cls-3" x1="2.83" y1="68.53" x2="17.01" y2="68.53"/></g><g id="Bottom"><line class="cls-3" x1="25.51" y1="289.63" x2="25.51" y2="309.48"/><line class="cls-3" x1="96.38" y1="289.63" x2="96.38" y2="309.48"/><line class="cls-3" x1="166.54" y1="289.63" x2="166.54" y2="309.48"/><line class="cls-3" x1="238.11" y1="289.63" x2="238.11" y2="309.48"/><line class="cls-3" x1="308.88" y1="289.63" x2="308.88" y2="309.48"/><line class="cls-3" x1="32.6" y1="299.56" x2="89.29" y2="299.56"/><line class="cls-3" x1="103.46" y1="299.56" x2="160.16" y2="299.56"/><line class="cls-3" x1="172.91" y1="299.56" x2="232.44" y2="299.56"/><line class="cls-3" x1="243.78" y1="299.56" x2="303.31" y2="299.56"/></g></svg>