<svg id="Layer_1" data-name="Layer 1" xmlns="http://www.w3.org/2000/svg" viewBox="0 0 283.46 113.39"><defs><style>.cls-1{fill:#fff;}.cls-2{fill:#231f20;}.cls-3,.cls-4,.cls-5{fill:none;stroke:#231f20;stroke-miterlimit:10;}.cls-4{stroke-dasharray:8.11 6.08;}.cls-5{stroke-linecap:round;stroke-width:2px;}</style></defs><title>FoldOverAndOver</title><rect class="cls-1" x="0.5" y="0.5" width="282.46" height="112.39"/><path class="cls-2" d="M282.46,1V112.39H1V1H282.46m1-1H0V113.39H283.46V0Z" transform="translate(0 0)"/><line class="cls-3" x1="56.69" x2="56.69" y2="4"/><line class="cls-4" x1="56.69" y1="10.08" x2="56.69" y2="106.35"/><line class="cls-3" x1="56.69" y1="109.39" x2="56.69" y2="113.39"/><line class="cls-3" x1="113.39" x2="113.39" y2="4"/><line class="cls-4" x1="113.39" y1="10.08" x2="113.39" y2="106.35"/><line class="cls-3" x1="113.39" y1="109.39" x2="113.39" y2="113.39"/><line class="cls-3" x1="170.08" x2="170.08" y2="4"/><line class="cls-4" x1="170.08" y1="10.08" x2="170.08" y2="106.35"/><line class="cls-3" x1="170.08" y1="109.39" x2="170.08" y2="113.39"/><path class="cls-5" d="M141.66,61.56c20.43-24.72,48-18.18,56.84,0" transform="translate(0 0)"/><line class="cls-5" x1="198.5" y1="61.56" x2="195.24" y2="48.63"/><line class="cls-5" x1="198.5" y1="61.56" x2="188.48" y2="58.2"/><path class="cls-5" d="M85,61.56c20.44-24.72,48.05-18.18,56.85,0" transform="translate(0 0)"/><path class="cls-5" d="M28.27,61.56c20.44-24.72,48.05-18.18,56.84,0" transform="translate(0 0)"/></svg>