<svg id="Layer_1" data-name="Layer 1" xmlns="http://www.w3.org/2000/svg" viewBox="0 0 280.83 154.06"><defs><style>.cls-1,.cls-3,.cls-4,.cls-5,.cls-6{fill:none;}.cls-1,.cls-2,.cls-3,.cls-4,.cls-5,.cls-6,.cls-7{stroke:#231f20;stroke-miterlimit:10;}.cls-2{fill:#898989;stroke-width:2px;}.cls-3{stroke-dasharray:1 2.99;}.cls-4{stroke-dasharray:0.99 2.98;}.cls-5{stroke-dasharray:1 2.99;}.cls-6{stroke-dasharray:0.99 2.98;}.cls-7{fill:#fff;}.cls-8{fill:#231f20;}</style></defs><title>HoldHere</title><line class="cls-1" x1="143.77" y1="148.34" x2="140.41" y2="19.16"/><polygon class="cls-2" points="140.41 19.16 2.5 150.38 278.33 150.38 140.41 19.16"/><line class="cls-1" x1="139.29" y1="148.34" x2="140.48" y2="21.52"/><polygon class="cls-2" points="140.41 19.16 6.52 153.06 274.31 153.06 140.41 19.16"/><path class="cls-1" d="M172.66,175.34" transform="translate(-1.14 -4.18)"/><path class="cls-1" d="M155.62,146.19" transform="translate(-1.14 -4.18)"/><line class="cls-1" x1="278.33" y1="150.38" x2="277.83" y2="150.38"/><line class="cls-3" x1="274.84" y1="150.38" x2="144.98" y2="150.38"/><path class="cls-1" d="M144.63,154.56h-.5v-.49" transform="translate(-1.14 -4.18)"/><path class="cls-4" d="M144.06,151.09c-.38-19.1-2.18-111-2.47-125.75" transform="translate(-1.14 -4.18)"/><path class="cls-1" d="M141.56,23.84v-.49" transform="translate(-1.14 -4.18)"/><line class="cls-1" x1="2.5" y1="150.38" x2="3" y2="150.38"/><line class="cls-5" x1="5.99" y1="150.38" x2="135.87" y2="150.38"/><path class="cls-1" d="M138.5,154.56h.5v-.49" transform="translate(-1.14 -4.18)"/><path class="cls-6" d="M139.07,151.09c.37-19.1,2.16-111,2.45-125.75" transform="translate(-1.14 -4.18)"/><path class="cls-1" d="M141.54,23.84v-.49" transform="translate(-1.14 -4.18)"/><circle class="cls-7" cx="139.97" cy="11.91" r="11.41"/><circle class="cls-7" cx="84.61" cy="65.13" r="11.35"/><line class="cls-1" x1="76.58" y1="57.1" x2="63.33" y2="43.85"/><path class="cls-8" d="M72.7,49.48a.5.5,0,0,1-.6.38L64.63,48.2l1.66,7.47a.5.5,0,0,1-.38.6.52.52,0,0,1-.6-.39l-1.82-8.23a.49.49,0,0,1,.13-.46.53.53,0,0,1,.46-.14l8.24,1.83a.51.51,0,0,1,.24.13A.5.5,0,0,1,72.7,49.48Z" transform="translate(-1.14 -4.18)"/></svg>