<svg id="Layer_1" data-name="Layer 1" xmlns="http://www.w3.org/2000/svg" viewBox="0 0 23.7 43.14"><defs><style>.cls-1{fill:#fff;}.cls-1,.cls-2{stroke:#231f20;stroke-miterlimit:10;}.cls-2{fill:none;}.cls-3{fill:#231f20;}</style></defs><title>0</title><circle class="cls-1" cx="11.85" cy="31.29" r="11.35"/><line class="cls-2" x1="11.85" y1="19.94" x2="11.85" y2="1.2"/><path class="cls-3" d="M138.15,53.68a.49.49,0,0,1-.69-.16l-4.11-6.45-4.1,6.45a.5.5,0,0,1-.7.16.51.51,0,0,1-.15-.69l4.53-7.12a.5.5,0,0,1,.42-.23.52.52,0,0,1,.43.23L138.31,53a.5.5,0,0,1,.08.27A.52.52,0,0,1,138.15,53.68Z" transform="translate(-121.5 -45.64)"/></svg>