<svg id="Layer_1" data-name="Layer 1" xmlns="http://www.w3.org/2000/svg" viewBox="0 0 40.8 25.59"><defs><style>.cls-1{fill:#fff;}.cls-1,.cls-2{stroke:#231f20;stroke-miterlimit:10;}.cls-2{fill:none;}.cls-3{fill:#231f20;}</style></defs><title>112,5</title><circle class="cls-1" cx="28.95" cy="11.85" r="11.35"/><line class="cls-2" x1="18.46" y1="16.2" x2="1.15" y2="23.37"/><path class="cls-3" d="M-3.67,24.09a.49.49,0,0,1,.13.68l0,0-4.38,6.26,7.53,1.32a.51.51,0,0,1,.42.57v0a.51.51,0,0,1-.58.4L-8.89,31.9a.48.48,0,0,1-.37-.3.49.49,0,0,1,0-.48l4.85-6.92A.49.49,0,0,1-4.14,24,.53.53,0,0,1-3.67,24.09Z" transform="translate(9.3 -7.77)"/></svg>