<svg id="Layer_1" data-name="Layer 1" xmlns="http://www.w3.org/2000/svg" viewBox="0 0 34.13 34.12"><defs><style>.cls-1{fill:#fff;}.cls-1,.cls-2{stroke:#231f20;stroke-miterlimit:10;}.cls-2{fill:none;}.cls-3{fill:#231f20;}</style></defs><title>135</title><circle class="cls-1" cx="22.28" cy="11.85" r="11.35"/><line class="cls-2" x1="14.25" y1="19.88" x2="1" y2="33.13"/><path class="cls-3" d="M-1.32,29.4A.48.48,0,0,1-.94,30v0l-1.65,7.46L4.87,35.8a.51.51,0,0,1,.6.37h0a.5.5,0,0,1-.38.6l-8.24,1.83a.49.49,0,0,1-.46-.13A.55.55,0,0,1-3.75,38l1.84-8.25a.45.45,0,0,1,.14-.24A.49.49,0,0,1-1.32,29.4Z" transform="translate(3.76 -4.5)"/></svg>