<svg id="Layer_1" data-name="Layer 1" xmlns="http://www.w3.org/2000/svg" viewBox="0 0 25.6 40.8"><defs><style>.cls-1{fill:#fff;}.cls-1,.cls-2{stroke:#231f20;stroke-miterlimit:10;}.cls-2{fill:none;}.cls-3{fill:#231f20;}</style></defs><title>157,5</title><circle class="cls-1" cx="13.75" cy="11.85" r="11.35"/><line class="cls-2" x1="9.4" y1="22.34" x2="2.23" y2="39.65"/><path class="cls-3" d="M2.68,34.32a.48.48,0,0,1,.57.39v0l1.33,7.53,6.25-4.39a.51.51,0,0,1,.7.11h0a.52.52,0,0,1-.12.7L4.52,43.53a.51.51,0,0,1-.79-.32L2.27,34.89a.64.64,0,0,1,0-.28A.53.53,0,0,1,2.68,34.32Z" transform="translate(-2.27 -2.82)"/></svg>