<svg id="Layer_1" data-name="Layer 1" xmlns="http://www.w3.org/2000/svg" viewBox="0 0 23.7 43.14"><defs><style>.cls-1{fill:#fff;}.cls-1,.cls-2{stroke:#231f20;stroke-miterlimit:10;}.cls-2{fill:none;}.cls-3{fill:#231f20;}</style></defs><title>180</title><circle class="cls-1" cx="11.85" cy="11.85" r="11.35"/><line class="cls-2" x1="11.85" y1="23.2" x2="11.85" y2="41.94"/><path class="cls-3" d="M7.76,38.14a.47.47,0,0,1,.67.14l0,0,4.11,6.45,4.1-6.45a.49.49,0,0,1,.68-.17h0a.52.52,0,0,1,.15.69L13,46a.52.52,0,0,1-.42.23.51.51,0,0,1-.43-.23L7.6,38.82a.45.45,0,0,1-.08-.27A.5.5,0,0,1,7.76,38.14Z" transform="translate(-0.71 -3.04)"/></svg>