<svg id="Layer_1" data-name="Layer 1" xmlns="http://www.w3.org/2000/svg" viewBox="0 0 25.59 40.8"><defs><style>.cls-1{fill:#fff;}.cls-1,.cls-2{stroke:#231f20;stroke-miterlimit:10;}.cls-2{fill:none;}.cls-3{fill:#231f20;}</style></defs><title>202,5</title><circle class="cls-1" cx="11.85" cy="11.85" r="11.35"/><line class="cls-2" x1="16.2" y1="22.34" x2="23.37" y2="39.65"/><path class="cls-3" d="M13.2,39a.5.5,0,0,1,.68-.13l0,0,6.27,4.38,1.32-7.53a.49.49,0,0,1,.57-.41h0a.51.51,0,0,1,.41.58L21,44.18a.5.5,0,0,1-.3.37.53.53,0,0,1-.49,0l-6.91-4.86a.49.49,0,0,1-.18-.22A.53.53,0,0,1,13.2,39Z" transform="translate(3.11 -3.79)"/></svg>