<svg id="Layer_1" data-name="Layer 1" xmlns="http://www.w3.org/2000/svg" viewBox="0 0 25.59 40.8"><defs><style>.cls-1{fill:#fff;}.cls-1,.cls-2{stroke:#231f20;stroke-miterlimit:10;}.cls-2{fill:none;}.cls-3{fill:#231f20;}</style></defs><title>22,5</title><circle class="cls-1" cx="13.74" cy="28.95" r="11.35"/><line class="cls-2" x1="9.4" y1="18.46" x2="2.23" y2="1.15"/><path class="cls-3" d="M11.2,7.21a.48.48,0,0,1-.68.13h0L4.24,2.94,2.92,10.47a.5.5,0,0,1-.57.42h0a.52.52,0,0,1-.4-.58L3.39,2a.51.51,0,0,1,.3-.38.57.57,0,0,1,.49,0l6.91,4.85a.55.55,0,0,1,.18.22A.52.52,0,0,1,11.2,7.21Z" transform="translate(-1.92 -1.58)"/></svg>