<svg id="Layer_1" data-name="Layer 1" xmlns="http://www.w3.org/2000/svg" viewBox="0 0 34.12 34.13"><defs><style>.cls-1{fill:#fff;}.cls-1,.cls-2{stroke:#231f20;stroke-miterlimit:10;}.cls-2{fill:none;}.cls-3{fill:#231f20;}</style></defs><title>225</title><circle class="cls-1" cx="11.85" cy="11.85" r="11.35"/><line class="cls-2" x1="19.88" y1="19.88" x2="33.13" y2="33.13"/><path class="cls-3" d="M18.51,36.61a.49.49,0,0,1,.58-.38h0l7.47,1.66-1.66-7.46a.51.51,0,0,1,.36-.61h0a.5.5,0,0,1,.59.38l1.83,8.24a.49.49,0,0,1-.13.46.54.54,0,0,1-.47.14L18.88,37.2a.6.6,0,0,1-.25-.13A.55.55,0,0,1,18.51,36.61Z" transform="translate(6.38 -4.92)"/></svg>