<svg id="Layer_1" data-name="Layer 1" xmlns="http://www.w3.org/2000/svg" viewBox="0 0 43.14 23.7"><defs><style>.cls-1{fill:#fff;}.cls-1,.cls-2{stroke:#231f20;stroke-miterlimit:10;}.cls-2{fill:none;}.cls-3{fill:#231f20;}</style></defs><title>270</title><circle class="cls-1" cx="11.85" cy="11.85" r="11.35"/><line class="cls-2" x1="23.2" y1="11.85" x2="41.94" y2="11.85"/><path class="cls-3" d="M27.25,27.54a.5.5,0,0,1,.14-.68h0l6.45-4.11-6.45-4.1a.52.52,0,0,1-.17-.69h0a.5.5,0,0,1,.69-.15l7.12,4.53a.5.5,0,0,1,.23.42.54.54,0,0,1-.23.43L27.93,27.7a.5.5,0,0,1-.27.08A.52.52,0,0,1,27.25,27.54Z" transform="translate(7.85 -10.89)"/></svg>