<svg id="Layer_1" data-name="Layer 1" xmlns="http://www.w3.org/2000/svg" viewBox="0 0 40.8 25.59"><defs><style>.cls-1{fill:#fff;}.cls-1,.cls-2{stroke:#231f20;stroke-miterlimit:10;}.cls-2{fill:none;}.cls-3{fill:#231f20;}</style></defs><title>292,5</title><circle class="cls-1" cx="11.85" cy="13.74" r="11.35"/><line class="cls-2" x1="22.34" y1="9.4" x2="39.65" y2="2.23"/><path class="cls-3" d="M28.08,22.09a.49.49,0,0,1-.13-.68v0l4.39-6.27L24.82,13.8a.5.5,0,0,1-.42-.57h0a.5.5,0,0,1,.58-.4l8.32,1.46a.5.5,0,0,1,.32.78L28.77,22a.52.52,0,0,1-.22.17A.52.52,0,0,1,28.08,22.09Z" transform="translate(7.09 -12.81)"/></svg>