<svg id="Layer_1" data-name="Layer 1" xmlns="http://www.w3.org/2000/svg" viewBox="0 0 34.13 34.12"><defs><style>.cls-1{fill:#fff;}.cls-1,.cls-2{stroke:#231f20;stroke-miterlimit:10;}.cls-2{fill:none;}.cls-3{fill:#231f20;}</style></defs><title>315</title><circle class="cls-1" cx="11.85" cy="22.27" r="11.35"/><line class="cls-2" x1="19.88" y1="14.25" x2="33.13" y2="0.99"/><path class="cls-3" d="M25.72,16.78a.5.5,0,0,1-.38-.58v0L27,8.71l-7.46,1.66a.48.48,0,0,1-.6-.36v0a.51.51,0,0,1,.38-.59l8.24-1.83A.49.49,0,0,1,28,7.7a.51.51,0,0,1,.14.47l-1.83,8.24a.48.48,0,0,1-.14.25A.51.51,0,0,1,25.72,16.78Z" transform="translate(5.96 -7.56)"/></svg>