<svg id="Layer_1" data-name="Layer 1" xmlns="http://www.w3.org/2000/svg" viewBox="0 0 25.6 40.8"><defs><style>.cls-1{fill:#fff;}.cls-1,.cls-2{stroke:#231f20;stroke-miterlimit:10;}.cls-2{fill:none;}.cls-3{fill:#231f20;}</style></defs><title>337,5</title><circle class="cls-1" cx="11.85" cy="28.95" r="11.35"/><line class="cls-2" x1="16.2" y1="18.46" x2="23.37" y2="1.15"/><path class="cls-3" d="M21.72,11.86a.49.49,0,0,1-.57-.39v0L19.82,3.91,13.56,8.3a.5.5,0,0,1-.7-.1v0A.5.5,0,0,1,13,7.49l6.91-4.85a.51.51,0,0,1,.79.33l1.45,8.32a.45.45,0,0,1,0,.28A.52.52,0,0,1,21.72,11.86Z" transform="translate(3.46 -2.56)"/></svg>