<svg id="Layer_1" data-name="Layer 1" xmlns="http://www.w3.org/2000/svg" viewBox="0 0 34.12 34.13"><defs><style>.cls-1{fill:#fff;}.cls-1,.cls-2{stroke:#231f20;stroke-miterlimit:10;}.cls-2{fill:none;}.cls-3{fill:#231f20;}</style></defs><title>45</title><circle class="cls-1" cx="22.27" cy="22.28" r="11.35"/><line class="cls-2" x1="14.25" y1="14.25" x2="0.99" y2="1"/><path class="cls-3" d="M5.89,9.57a.47.47,0,0,1-.57.38h0L-2.17,8.29l1.66,7.46a.5.5,0,0,1-.37.6h0a.52.52,0,0,1-.6-.38L-3.32,7.74a.49.49,0,0,1,.14-.46.49.49,0,0,1,.46-.14L5.53,9a.44.44,0,0,1,.24.13A.49.49,0,0,1,5.89,9.57Z" transform="translate(3.33 -7.13)"/></svg>