<svg id="Layer_1" data-name="Layer 1" xmlns="http://www.w3.org/2000/svg" viewBox="0 0 40.8 25.6"><defs><style>.cls-1{fill:#fff;}.cls-1,.cls-2{stroke:#231f20;stroke-miterlimit:10;}.cls-2{fill:none;}.cls-3{fill:#231f20;}</style></defs><title>67,5</title><circle class="cls-1" cx="28.95" cy="13.75" r="11.35"/><line class="cls-2" x1="18.46" y1="9.4" x2="1.15" y2="2.23"/><path class="cls-3" d="M1,13.57a.49.49,0,0,1-.39.57h0L-7,15.47l4.39,6.26a.51.51,0,0,1-.11.7h0a.52.52,0,0,1-.7-.13L-8.24,15.4a.49.49,0,0,1,0-.48.51.51,0,0,1,.37-.3L.41,13.16a.45.45,0,0,1,.28,0A.51.51,0,0,1,1,13.57Z" transform="translate(8.33 -13.15)"/></svg>