<svg id="Layer_1" data-name="Layer 1" xmlns="http://www.w3.org/2000/svg" viewBox="0 0 43.14 23.7"><defs><style>.cls-1{fill:#fff;}.cls-1,.cls-2{stroke:#231f20;stroke-miterlimit:10;}.cls-2{fill:none;}.cls-3{fill:#231f20;}</style></defs><title>90</title><circle class="cls-1" cx="31.29" cy="11.85" r="11.35"/><line class="cls-2" x1="19.94" y1="11.85" x2="1.2" y2="11.85"/><path class="cls-3" d="M-2.85,18.64a.49.49,0,0,1-.14.68h0l-6.45,4.11L-3,27.54a.49.49,0,0,1,.17.69h0a.51.51,0,0,1-.69.15l-7.12-4.53a.5.5,0,0,1-.23-.42.56.56,0,0,1,.23-.43l7.13-4.53a.56.56,0,0,1,.27-.08A.52.52,0,0,1-2.85,18.64Z" transform="translate(10.89 -11.59)"/></svg>