<svg xmlns="http://www.w3.org/2000/svg" viewBox="0 0 268.53 161.47"><defs><style>.cls-1{fill:none;}.cls-1,.cls-2{stroke:#231f20;stroke-linecap:round;stroke-miterlimit:10;}.cls-2{fill:#fff;}</style></defs><title>Arrows</title><g id="Arrows"><g id="Arrows_of_Action" data-name="Arrows of Action"><g id="Inflate_here" data-name="Inflate here"><line class="cls-1" x1="187.68" y1="128.39" x2="237.07" y2="128.39"/><line class="cls-1" x1="187.68" y1="153.09" x2="237.07" y2="153.09"/><line class="cls-1" x1="227.21" y1="120.53" x2="252.57" y2="140.74"/><line class="cls-1" x1="227.19" y1="160.97" x2="252.57" y2="140.74"/></g><g id="Pull_paper_out" data-name="Pull paper out"><line class="cls-1" x1="267.99" y1="84.72" x2="224.55" y2="59.63"/><line class="cls-1" x1="268.03" y1="84.74" x2="224.55" y2="109.9"/><line class="cls-1" x1="181.31" y1="65.81" x2="201.26" y2="84.72"/><line class="cls-1" x1="181.31" y1="103.96" x2="201.26" y2="84.72"/><line class="cls-1" x1="224.55" y1="59.63" x2="227.09" y2="74.02"/><line class="cls-1" x1="224.55" y1="109.9" x2="226.88" y2="95.72"/><line class="cls-1" x1="181.31" y1="103.96" x2="226.88" y2="95.72"/><line class="cls-1" x1="227.09" y1="74.02" x2="181.31" y2="65.81"/></g><g id="Push_here" data-name="Push here"><line class="cls-1" x1="247.71" y1="24.82" x2="225.44" y2="2.55"/><line class="cls-1" x1="187.11" y1="2.55" x2="195.04" y2="24.82"/><line class="cls-1" x1="225.44" y1="2.55" x2="225.44" y2="17.55"/><path class="cls-1" d="M194.58,55.66c7,10.38,23.09,13.73,38.33,15" transform="translate(-7.47 -53.12)"/><line class="cls-1" x1="247.71" y1="24.82" x2="225.44" y2="47.06"/><line class="cls-1" x1="187.11" y1="47.06" x2="195.04" y2="24.82"/><line class="cls-1" x1="225.44" y1="47.06" x2="225.44" y2="32.07"/><path class="cls-1" d="M194.58,100.18c7-10.37,23.09-13.72,38.33-15" transform="translate(-7.47 -53.12)"/></g></g><g id="Arrows_of_Motion" data-name="Arrows of Motion"><g id="Turn_the_paper_over" data-name="Turn the paper over"><path class="cls-1" d="M8,192C14.76,185.31,28,167.44,70,167.76c9.2.07,18.8,6,19.39,16.84.45,8.36-8.79,17.68-19.39,17.76-11,.09-20.37-9.82-19.75-18,.88-11.49,11.36-16.64,23.22-16.56,32.83.21,49,11.32,57.24,24.2" transform="translate(-7.47 -53.12)"/><line class="cls-1" x1="123.28" y1="138.91" x2="114.5" y2="118.32"/><line class="cls-1" x1="123.28" y1="138.91" x2="102.19" y2="131.84"/></g><g id="Valley_fold" data-name="Valley fold"><path class="cls-2" d="M9,80c44-40.33,103.5-29.65,122.46,0" transform="translate(-7.47 -53.12)"/><line class="cls-1" x1="123.95" y1="26.89" x2="116.93" y2="5.8"/><line class="cls-1" x1="123.95" y1="26.89" x2="102.37" y2="21.41"/></g><g id="Mountain_Fold" data-name="Mountain Fold"><path class="cls-1" d="M50.57,138.89c28.4,3.35,60.34-2.22,60.34-14.32" transform="translate(-7.47 -53.12)"/><path class="cls-1" d="M110.91,124.57c-.43-9.94-24.21-14.42-57.51-19.89" transform="translate(-7.47 -53.12)"/><line class="cls-1" x1="45.93" y1="51.56" x2="75.42" y2="44.4"/><line class="cls-1" x1="68.82" y1="55.56" x2="75.42" y2="44.4"/></g></g></g></svg>